:SAMPLES-PER-SECOND 30
:FRAME-RANGE 1-3535
:FULLY-SPECIFIED
:DEGREES
1878
root  3.63342 51.9666 14.6658 -152.758 59.047 -157.938
RightUpLeg  -1.59059 -7.35363 -3.86861
RightLeg  25.0992 -1.84173 -1.1748
RightFoot  4.64431 -2.85329 20.3524
RightToes  5.38503e-012 1.26228e-014 -6.01869e-014
Spine  2.85712 10.3134 24.173
Spine1  1.76258 14.2049 -15.5662
HEad  -16.6031 26.2864 -17.1899
LeftShoulder1  0.0975562 -1.42235 7.02722
LeftArm  -24.5453 -0.412036 10.5625
LeftForeArm  -9.43301 -8.97574 -3.09727
LeftHand  -0.158102 0.282018 3.59489
RightShoulder  -0.675922 2.34463 -23.5137
RightArm  -78.3496 41.3914 -30.7352
RightForeArm  13.4076 -3.11109 -15.4791
RightHand  -0.131656 -4.05695 -10.1919
LeftUpLeg  -10.446 -0.742787 12.5745
LeftLeg  11.1608 1.46218 1.32965
LeftFoot  17.871 2.31491 -9.29381
LeftToes  8.9788e-011 3.29689e-010 2.1201e-011
1879
root  5.58989 52.4359 14.1024 -156.297 52.9174 -162.405
RightUpLeg  -4.34614 -4.41694 -4.39636
RightLeg  24.906 -1.35234 -0.915255
RightFoot  1.03549 -1.86871 17.1811
RightToes  5.38503e-012 1.26228e-014 -6.01869e-014
Spine  4.7702 8.88303 21.0383
Spine1  1.13451 12.5522 -14.3393
HEad  -14.8433 23.7542 -14.4408
LeftShoulder1  0.164477 -0.815071 4.81905
LeftArm  -22.4545 2.0801 10.668
LeftForeArm  -7.95947 -10.1869 -3.67479
LeftHand  -0.164979 -0.253862 3.44999
RightShoulder  -0.621505 2.32462 -22.4641
RightArm  -70.9964 35.5372 -28.2682
RightForeArm  8.34182 -3.26083 -14.5605
RightHand  -0.092374 -4.48716 -9.73612
LeftUpLeg  -14.0725 0.474735 12.1282
LeftLeg  11.5053 2.40106 1.69625
LeftFoot  14.736 1.78897 -8.10816
LeftToes  8.9788e-011 3.29689e-010 2.1201e-011
1880
root  7.55517 52.5091 13.5512 -158.191 47.5114 -165.598
RightUpLeg  -7.64657 -1.54304 -6.23029
RightLeg  25.3437 -1.2533 -0.875194
RightFoot  -1.27324 -1.4863 16.6647
RightToes  5.38503e-012 1.26228e-014 -6.01869e-014
Spine  6.81083 7.94248 18.4589
Spine1  0.968662 11.4973 -13.2193
HEad  -13.0836 20.2155 -12.6064
LeftShoulder1  0.196599 -0.00534754 2.59412
LeftArm  -22.686 4.00704 8.83811
LeftForeArm  -8.78445 -9.35329 -3.18549
LeftHand  -0.184972 0.00675656 4.02436
RightShoulder  -0.523394 1.88814 -21.4061
RightArm  -64.2739 29.5392 -25.4756
RightForeArm  6.5171 -3.45838 -13.4122
RightHand  -0.0473778 -5.04147 -9.41147
LeftUpLeg  -18.045 2.13296 11.2456
LeftLeg  11.2436 1.92167 1.68424
LeftFoot  12.0493 1.49479 -7.57112
LeftToes  8.9788e-011 3.29689e-010 2.1201e-011
1881
root  9.51746 52.1897 13.0202 -159.023 43.547 -167.74
RightUpLeg  -11.4194 0.774006 -9.20304
RightLeg  26.5169 0.0830649 -0.182793
RightFoot  -2.18763 -1.41244 17.3335
RightToes  5.38503e-012 1.26228e-014 -6.01869e-014
Spine  9.12664 7.07756 16.5724
Spine1  0.72428 10.7237 -12.8778
HEad  -10.3122 17.9242 -11.6793
LeftShoulder1  0.265163 0.101071 -0.0707038
LeftArm  -20.9857 7.51357 6.42962
LeftForeArm  -18.9407 -6.58787 -2.38066
LeftHand  -0.141262 -0.184756 2.98779
RightShoulder  -0.462608 2.21418 -19.4376
RightArm  -60.3185 25.6854 -22.9185
RightForeArm  2.74667 -3.50855 -12.9588
RightHand  -0.0163749 -5.43289 -10.0177
LeftUpLeg  -21.8678 3.20618 10.2129
LeftLeg  10.7815 3.32766 2.10958
LeftFoot  12.4219 1.54052 -7.67696
LeftToes  8.9788e-011 3.29689e-010 2.1201e-011
1882
root  11.5133 51.4241 12.4924 -158.754 40.9061 -168.981
RightUpLeg  -15.8757 2.22604 -12.7119
RightLeg  28.3559 2.328 1.1323
RightFoot  -4.6177 -1.11233 18.2521
RightToes  5.38503e-012 1.26228e-014 -6.01869e-014
Spine  10.8711 6.16248 14.9081
Spine1  1.03746 10.0754 -13.3174
HEad  -8.89108 17.2331 -11.5182
LeftShoulder1  0.268545 0.923513 -3.47444
LeftArm  -17.3244 11.5531 3.98852
LeftForeArm  -20.2998 -3.2928 -2.70807
LeftHand  -0.138458 0.694037 3.37031
RightShoulder  -0.413135 3.23058 -17.0061
RightArm  -56.2567 23.4453 -19.6697
RightForeArm  4.35294 -3.79045 -11.4902
RightHand  -0.0119589 -5.46095 -11.3425
LeftUpLeg  -25.9244 4.52087 9.41989
LeftLeg  10.7009 4.44966 2.26764
LeftFoot  13.3828 1.66451 -7.96157
LeftToes  8.9788e-011 3.29689e-010 2.1201e-011
1883
root  13.5628 50.262 11.9257 -157.721 39.1358 -169.332
RightUpLeg  -20.5309 3.09851 -16.0298
RightLeg  30.4825 3.84368 2.20957
RightFoot  -7.78433 -0.629738 18.415
RightToes  5.38503e-012 1.26228e-014 -6.01869e-014
Spine  12.6583 6.15297 13.4404
Spine1  1.05078 10.312 -13.3913
HEad  -8.12953 15.9826 -11.1761
LeftShoulder1  0.220763 1.83657 -7.70635
LeftArm  -13.3768 13.1632 0.289797
LeftForeArm  -18.4673 -0.443368 -4.14063
LeftHand  -0.105364 1.74857 3.11551
RightShoulder  -0.303144 4.68634 -14.0349
RightArm  -50.6038 20.9115 -17.0457
RightForeArm  14.0834 -4.36773 -8.55205
RightHand  -0.150227 -4.01829 -11.5664
LeftUpLeg  -29.2926 6.14713 9.12065
LeftLeg  9.8762 4.62488 1.9186
LeftFoot  13.6633 2.24049 -10.462
LeftToes  8.9788e-011 3.29689e-010 2.1201e-011
1884
root  15.6814 48.678 11.2836 -156.979 37.0742 -169.25
RightUpLeg  -24.2837 2.56205 -18.6123
RightLeg  33.1294 3.87228 2.47789
RightFoot  -10.9587 -0.138224 18.7754
RightToes  5.38503e-012 1.26228e-014 -6.01869e-014
Spine  14.303 6.09832 12.807
Spine1  1.48929 10.48 -13.1635
HEad  -7.86902 14.6484 -10.8006
LeftShoulder1  0.169648 2.37773 -11.3486
LeftArm  -9.89353 14.5099 -4.987
LeftForeArm  -15.1171 -0.0266199 -6.07692
LeftHand  -0.0926656 2.61476 3.3799
RightShoulder  -0.0167852 5.5915 -9.85674
RightArm  -48.3441 20.525 -14.2808
RightForeArm  21.2492 -4.57223 -7.32357
RightHand  -0.212104 -3.23824 -10.8473
LeftUpLeg  -31.5775 6.59874 9.3784
LeftLeg  9.17456 3.3974 1.53568
LeftFoot  13.4065 3.14963 -14.668
LeftToes  8.9788e-011 3.29689e-010 2.1201e-011
